<svg width="18" height="18" viewBox="0 0 18 18" fill="none" xmlns="http://www.w3.org/2000/svg">
<path d="M14.6229 7.31143C14.6229 8.92486 14.0991 10.4153 13.2168 11.6245L17.6669 16.0781C18.1063 16.5175 18.1063 17.2311 17.6669 17.6705C17.2276 18.1098 16.514 18.1098 16.0746 17.6705L11.6245 13.2168C10.4153 14.1026 8.92487 14.6229 7.31143 14.6229C3.27257 14.6229 0 11.3503 0 7.31143C0 3.27257 3.27257 0 7.31143 0C11.3503 0 14.6229 3.27257 14.6229 7.31143ZM7.31143 12.3732C10.1059 12.3732 12.3732 10.1059 12.3732 7.31143C12.3732 4.51692 10.1059 2.24967 7.31143 2.24967C4.51692 2.24967 2.24967 4.51692 2.24967 7.31143C2.24967 10.1059 4.51692 12.3732 7.31143 12.3732Z" fill="#1E1E1E"/>
</svg>
