<svg width="34" height="27" viewBox="0 0 34 27" fill="none" xmlns="http://www.w3.org/2000/svg">
<path d="M3.77723 6.74301C3.77723 5.14756 5.04614 3.85315 6.61015 3.85315C8.17416 3.85315 9.44307 5.14756 9.44307 6.74301V13.486H3.77723V6.74301ZM0 6.74301V20.229C0 23.9557 2.95686 26.972 6.61015 26.972C10.2634 26.972 13.2203 23.9557 13.2203 20.229V9.48838C13.3265 10.6383 13.7043 11.7762 14.3889 12.7876L21.9729 24.0641C24.068 27.1767 28.1876 27.9353 31.1799 25.7559C34.1721 23.5764 34.8981 19.2838 32.8029 16.1712L25.2189 4.8947C23.1237 1.77606 18.9983 1.02349 16.0119 3.20293C14.3594 4.40704 13.3974 6.26137 13.2203 8.19998V6.74301C13.2203 3.01629 10.2634 0 6.61015 0C2.95686 0 0 3.01629 0 6.74301ZM17.5051 10.6082C16.5608 9.20541 16.9149 7.27884 18.2074 6.33361C19.4586 5.42451 21.1879 5.7135 22.1027 7.06812L26.057 12.9442L21.3413 16.3157L17.5051 10.6082ZM28.9784 22.6192C28.9312 22.6553 28.884 22.6854 28.8368 22.7155L29.0729 22.5469C29.0434 22.571 29.0138 22.5951 28.9784 22.6192Z" fill="#F6FBF6"/>
</svg>
