<svg width="24" height="28" viewBox="0 0 24 28" fill="none" xmlns="http://www.w3.org/2000/svg">
<path d="M0 1.75C0 0.782031 0.89375 0 2 0H22C23.1063 0 24 0.782031 24 1.75V3.5C24 4.46797 23.1063 5.25 22 5.25H2C0.89375 5.25 0 4.46797 0 3.5V1.75ZM2 7H22V24.5C22 26.4305 20.2062 28 18 28H6C3.79375 28 2 26.4305 2 24.5V7ZM10 13.125V15.75H7C6.45 15.75 6 16.1438 6 16.625V18.375C6 18.8563 6.45 19.25 7 19.25H10V21.875C10 22.3563 10.45 22.75 11 22.75H13C13.55 22.75 14 22.3563 14 21.875V19.25H17C17.55 19.25 18 18.8563 18 18.375V16.625C18 16.1438 17.55 15.75 17 15.75H14V13.125C14 12.6438 13.55 12.25 13 12.25H11C10.45 12.25 10 12.6438 10 13.125Z" fill="#F6FBF6"/>
</svg>
