<svg width="32" height="32" viewBox="0 0 32 32" fill="none" xmlns="http://www.w3.org/2000/svg">
<path d="M27.5591 0.432066L29.5592 2.43221L31.5593 4.43236C32.1469 5.0199 32.1469 5.96997 31.5593 6.55126C30.9718 7.13256 30.0217 7.13881 29.4404 6.55126L28.5029 5.6137L26.1152 7.99512L29.5529 11.4329C30.1405 12.0204 30.1405 12.9705 29.5529 13.5518C28.9654 14.1331 28.0153 14.1393 27.434 13.5518L22.9337 9.05145L18.4334 4.55737C17.8458 3.96983 17.8458 3.01976 18.4334 2.43846C19.0209 1.85717 19.971 1.85092 20.5523 2.43846L23.99 5.87621L26.3777 3.49479L25.4339 2.55722C24.8464 1.96968 24.8464 1.01961 25.4339 0.438316C26.0214 -0.142976 26.9715 -0.149227 27.5528 0.438316L27.5591 0.432066ZM13.1392 9.7265L16.9583 5.90747C16.977 5.92622 16.9958 5.95122 17.0208 5.96997L18.0209 6.97004L21.5211 10.4703L25.0214 13.9706L26.0214 14.9706C26.0402 14.9894 26.0589 15.0081 26.0839 15.0331L14.1456 26.9715C13.4893 27.6278 12.6017 27.9966 11.6704 27.9966H6.11373L2.55722 31.5593C1.96968 32.1469 1.01961 32.1469 0.438316 31.5593C-0.142976 30.9718 -0.149227 30.0217 0.438316 29.4404L4.00108 25.8777V20.3273C4.00108 19.396 4.36985 18.5084 5.02615 17.8521L7.7326 15.1456L11.2954 18.7084C11.6829 19.0959 12.3204 19.0959 12.708 18.7084C13.0955 18.3209 13.0955 17.6833 12.708 17.2958L9.1452 13.733L11.7329 11.1453L15.2957 14.7081C15.6832 15.0956 16.3207 15.0956 16.7083 14.7081C17.0958 14.3206 17.0958 13.683 16.7083 13.2955L13.1455 9.73275L13.1392 9.7265Z" fill="#F6FBF6"/>
</svg>
