<svg width="37" height="30" viewBox="0 0 37 30" fill="none" xmlns="http://www.w3.org/2000/svg">
<path d="M35.5068 14.2797C36.4539 12.8344 37 11.1058 37 9.25C37 4.13937 32.84 0 27.7039 0C25.8389 0 24.1075 0.543438 22.6491 1.48578C22.1901 1.78641 22.1553 2.42234 22.5445 2.80969L34.1763 14.3837C34.5656 14.7711 35.2105 14.7422 35.5068 14.2797ZM32.7586 17.0142C33.2176 16.7136 33.2525 16.0777 32.8632 15.6903L21.2315 4.11625C20.8422 3.72891 20.1973 3.75781 19.901 4.22031C18.9539 5.66563 18.4078 7.39422 18.4078 9.25C18.4078 14.3606 22.5678 18.5 27.7039 18.5C29.5689 18.5 31.3003 17.9566 32.7586 17.0142ZM17.3329 21.275H0.890401C0.338444 21.275 -0.0915009 21.7491 0.0188904 22.2867C0.913642 26.4666 4.64371 29.6 9.11165 29.6C13.5796 29.6 17.3097 26.4666 18.2044 22.2867C18.3206 21.7491 17.8849 21.275 17.3329 21.275ZM17.3329 19.425C17.8849 19.425 18.3148 18.9509 18.2044 18.4133C17.3097 14.2334 13.5796 11.1 9.11165 11.1C4.64371 11.1 0.913642 14.2334 0.0188904 18.4133C-0.097311 18.9509 0.338444 19.425 0.890401 19.425H17.3329Z" fill="#F6FBF6"/>
</svg>
