<svg width="4" height="27" viewBox="0 0 4 27" fill="none" xmlns="http://www.w3.org/2000/svg">
<path d="M6.75003 23.143C5.15292 23.143 3.85716 21.8472 3.85716 20.2501V13.5001H9.6429V20.2501C9.6429 21.8472 8.34713 23.143 6.75003 23.143ZM0 20.2501C0 23.9807 3.01943 27.0001 6.75003 27.0001C10.4806 27.0001 13.5001 23.9807 13.5001 20.2501V6.75004C13.5001 3.01944 10.4806 1.3113e-05 6.75003 1.3113e-05C3.01943 1.3113e-05 0 3.01944 0 6.75004V20.2501ZM33.4428 4.85762C33.0149 4.11632 32.0144 4.06811 31.4057 4.67079L20.0994 15.9771C19.4967 16.5798 19.5389 17.5862 20.2862 18.0141C21.6965 18.8217 23.3298 19.2858 25.0715 19.2858C30.3992 19.2858 34.7144 14.9706 34.7144 9.64291C34.7144 7.90116 34.2504 6.2679 33.4428 4.85762ZM29.8568 1.27167C28.4465 0.464078 26.8133 1.3113e-05 25.0715 1.3113e-05C19.7438 1.3113e-05 15.4286 4.31521 15.4286 9.64291C15.4286 11.3847 15.8927 13.0179 16.7003 14.4282C17.1282 15.1695 18.1286 15.2177 18.7374 14.615L30.0436 3.30873C30.6463 2.70605 30.6041 1.69957 29.8568 1.27167V1.27167Z" fill="#F6FBF6"/>
</svg>
