<svg width="17" height="17" viewBox="0 0 17 17" fill="none" xmlns="http://www.w3.org/2000/svg">
<path d="M12.2778 15.0732C12.2721 15.3242 12.3167 15.5737 12.409 15.8071C12.5013 16.0406 12.6395 16.2533 12.8154 16.4328C12.9912 16.6123 13.2013 16.7549 13.4332 16.8523C13.665 16.9497 13.9141 16.9999 14.1657 17C14.4173 17.0001 14.6664 16.95 14.8983 16.8527C15.1303 16.7554 15.3404 16.6129 15.5163 16.4335C15.6923 16.2541 15.8306 16.0415 15.923 15.808C16.0154 15.5746 16.0602 15.3251 16.0546 15.0742C16.0437 14.5819 15.84 14.1134 15.4872 13.7691C15.1343 13.4247 14.6603 13.2318 14.1667 13.2317C13.673 13.2316 13.1989 13.4242 12.8459 13.7684C12.4929 14.1126 12.2889 14.581 12.2778 15.0732ZM2.83333 15.0732C2.83333 15.573 3.03234 16.0522 3.38658 16.4055C3.74081 16.7589 4.22126 16.9574 4.72222 16.9574C5.22319 16.9574 5.70363 16.7589 6.05787 16.4055C6.4121 16.0522 6.61111 15.573 6.61111 15.0732C6.61111 14.5735 6.4121 14.0943 6.05787 13.7409C5.70363 13.3876 5.22319 13.1891 4.72222 13.1891C4.22126 13.1891 3.74081 13.3876 3.38658 13.7409C3.03234 14.0943 2.83333 14.5735 2.83333 15.0732V15.0732ZM6.18328 10.5249L16.6364 7.54604C16.7386 7.51204 16.8281 7.44792 16.893 7.36214C16.9579 7.27636 16.9952 7.17296 17 7.06558V1.88416H3.77778V0.376831C3.77778 0.169574 3.60683 0 3.40094 0H0.376833C0.276881 0.000496966 0.181178 0.0403882 0.110589 0.110977C0.0399997 0.181566 0.000248019 0.277128 0 0.376831L0 1.88416H1.88889L3.69278 10.3223L3.77778 11.2107V12.7642C3.77778 12.9705 3.94778 13.141 4.15556 13.141H16.6222C16.83 13.141 17 12.9696 17 12.7642V11.3049H6.37689C5.29078 11.3049 5.26811 10.7859 6.18328 10.5249V10.5249Z" fill="#FAFAFA"/>
</svg>
